<svg width="210" height="48" viewBox="0 0 210 48" fill="none" xmlns="http://www.w3.org/2000/svg">
<path d="M9.52 35.64C12.48 35.64 14.68 34.8933 16.12 33.4C16.9467 32.5467 17.36 31.5333 17.36 30.36C17.36 29.1867 17.0667 28.2267 16.48 27.48C15.92 26.7067 15.1867 26.12 14.28 25.72C13.3733 25.2933 12.36 24.9333 11.24 24.64C10.1467 24.32 9.04 23.9867 7.92 23.64C6.82667 23.2933 5.82667 22.88 4.92 22.4C4.01333 21.92 3.26667 21.24 2.68 20.36C2.12 19.48 1.84 18.4267 1.84 17.2C1.84 15.0667 2.64 13.32 4.24 11.96C5.84 10.6 7.96 9.92 10.6 9.92C13.24 9.92 15.72 10.1867 18.04 10.72V10.76H18.16L18.6 15.76L16.64 16.08L16.2 12.72C14.7067 12.4533 13.0533 12.32 11.24 12.32C9.45333 12.32 7.89333 12.72 6.56 13.52C5.22667 14.2933 4.56 15.4 4.56 16.84C4.56 18.28 5.09333 19.3733 6.16 20.12C7.22667 20.8667 8.52 21.44 10.04 21.84C11.56 22.2133 13.08 22.64 14.6 23.12C16.12 23.6 17.4133 24.4267 18.48 25.6C19.5467 26.7733 20.08 28.32 20.08 30.24C20.08 32.8267 19.12 34.7733 17.2 36.08C15.28 37.3867 12.8933 38.04 10.04 38.04C6.44 38.04 3.42667 37.2267 1 35.6L1.04 31.36L3 31.16L3.08 34.2C5.10667 35.16 7.25333 35.64 9.52 35.64ZM38.3431 38V35.8H41.0631V25.32H27.4231V35.8H30.3831V38H22.3031V35.8H24.9031V12.2H22.3031V10H30.3831V12.2H27.4231V22.92H41.0631V12.2H38.3431V10H46.0231V12.2H43.5831V35.8H46.4231V38H38.3431ZM49.3047 12.2V10H57.3847V12.2H54.6247V25.96C54.6247 30.0933 55.438 32.84 57.0647 34.2C57.838 34.8667 58.6247 35.3333 59.4247 35.6C60.2247 35.84 61.158 35.96 62.2247 35.96C64.3847 35.96 66.1447 35.16 67.5047 33.56C68.8914 31.96 69.5847 29.4267 69.5847 25.96V12.2H66.9447V10H74.6247V12.2H72.1047V26C72.1047 30.1867 71.1847 33.2667 69.3447 35.24C67.5047 37.1867 65.1314 38.16 62.2247 38.16C60.758 38.16 59.4647 38.0133 58.3447 37.72C57.2514 37.4 56.1847 36.8267 55.1447 36C52.9847 34.32 51.9047 30.9867 51.9047 26V12.2H49.3047ZM78.0509 12.2V10H83.5309L99.4509 34.4L99.2909 12.2H96.6909V10H104.331V12.2H101.811V38H98.8909L82.9309 13.6L83.0909 35.8H86.1309V38H78.0509V35.8H80.6109V12.2H78.0509ZM107.27 12.2V10H112.75L128.67 34.4L128.51 12.2H125.91V10H133.55V12.2H131.03V38H128.11L112.15 13.6L112.31 35.8H115.35V38H107.27V35.8H109.83V12.2H107.27Z" fill="white"/>
<path fill-rule="evenodd" clip-rule="evenodd" d="M163.103 39.1885C163.061 39.2001 163.016 39.2121 162.97 39.2236C162.924 39.2353 162.875 39.243 162.826 39.2527C162.728 39.2712 162.627 39.2905 162.529 39.3088C162.432 39.3281 162.337 39.3482 162.253 39.3696C162.168 39.3902 162.091 39.4077 162.031 39.4309C161.964 39.4442 162.077 39.3522 161.965 39.3582C161.895 39.387 161.818 39.4149 161.726 39.4425C161.68 39.4558 161.631 39.469 161.577 39.4822C161.55 39.4882 161.522 39.4947 161.493 39.5013C161.463 39.507 161.433 39.5115 161.401 39.516C161.402 39.6241 161.895 39.466 161.934 39.5486C162.031 39.526 162.103 39.5086 162.163 39.5006C162.193 39.4969 162.22 39.4953 162.246 39.4959C162.271 39.4957 162.295 39.4988 162.32 39.5048C162.514 39.4405 162.637 39.4176 162.748 39.3981C162.858 39.377 162.959 39.3641 163.102 39.3018C163.008 39.2699 163.143 39.2443 163.103 39.1885ZM163.193 39.1863C163.205 39.1975 163.192 39.2091 163.161 39.2212C163.264 39.2514 163.432 39.114 163.193 39.1863ZM147.2 28.6485C147.212 28.6852 147.224 28.7227 147.236 28.7611C147.247 28.7995 147.257 28.8388 147.267 28.8791C147.288 28.9586 147.308 29.0397 147.338 29.1148C147.355 29.1587 147.373 29.2015 147.391 29.2443C147.409 29.2873 147.431 29.327 147.452 29.3676C147.494 29.4485 147.535 29.5283 147.577 29.6081C147.597 29.6478 147.617 29.6881 147.638 29.7284C147.658 29.7685 147.676 29.81 147.699 29.8496C147.742 29.93 147.783 30.0126 147.821 30.1001C147.855 30.177 147.886 30.2543 147.916 30.3323C147.946 30.4098 147.981 30.4843 148.013 30.5613C148.046 30.6381 148.079 30.7152 148.114 30.7929C148.131 30.8315 148.15 30.8705 148.168 30.9094C148.188 30.9481 148.21 30.9853 148.233 31.0236C148.367 31.2477 148.396 31.3308 148.481 31.4857C148.547 31.5956 148.613 31.6992 148.676 31.7965C148.738 31.893 148.794 31.9865 148.852 32.0666C148.963 32.2304 149.043 32.3724 149.064 32.5002C149.084 32.5429 149.108 32.5842 149.133 32.6261C149.158 32.668 149.183 32.7103 149.209 32.7538C149.263 32.8391 149.317 32.9266 149.371 33.0127C149.424 33.101 149.484 33.1801 149.537 33.2599C149.591 33.3386 149.641 33.4151 149.684 33.4865C149.71 33.5317 149.79 33.6053 149.801 33.6227C149.918 33.797 150.017 33.9651 150.11 34.132C150.154 34.2172 150.205 34.2938 150.253 34.3742C150.301 34.4543 150.349 34.5342 150.399 34.615C150.424 34.6556 150.449 34.6962 150.474 34.7373C150.487 34.7578 150.5 34.7783 150.513 34.7988C150.527 34.8194 150.542 34.8386 150.556 34.8587C150.614 34.9376 150.674 35.0184 150.74 35.101C150.806 35.1833 150.876 35.2675 150.953 35.3543C151.034 35.4361 151.121 35.5195 151.217 35.6056C151.25 35.7143 151.242 35.8331 151.339 36.0074C151.383 36.0834 151.524 36.1976 151.552 36.2625C151.604 36.3818 151.565 36.4584 151.549 36.5431C151.533 36.6277 151.539 36.7209 151.686 36.8772C151.686 36.9216 151.617 36.891 151.587 36.9021C151.448 37.1679 151.174 37.2963 151.146 37.5513C150.821 37.5133 150.794 37.6828 150.523 37.669C150.44 37.6634 150.323 37.6431 150.208 37.6082C150.092 37.5759 149.971 37.5394 149.87 37.5174C149.754 37.4919 149.638 37.46 149.526 37.4302C149.413 37.4002 149.308 37.3657 149.207 37.3465C149.155 37.4203 148.916 37.2606 148.826 37.2868C148.747 37.2442 148.672 37.2073 148.599 37.17C148.527 37.1314 148.458 37.0942 148.388 37.0569C148.248 36.9824 148.107 36.9062 147.952 36.8102C147.928 36.8106 147.897 36.8001 147.868 36.7927C147.84 36.7845 147.814 36.7783 147.798 36.7894C147.47 36.5862 147.121 36.3942 146.779 36.137C146.606 36.0102 146.423 35.8784 146.249 35.7184C146.161 35.6397 146.071 35.5576 145.981 35.471C145.89 35.3842 145.796 35.2947 145.709 35.1938C145.645 35.1222 145.509 34.9681 145.435 34.8737C145.375 34.7956 145.307 34.7143 145.241 34.6265C145.176 34.5382 145.107 34.4463 145.038 34.353C144.9 34.1669 144.751 33.9783 144.621 33.7908C144.488 33.605 144.356 33.4325 144.242 33.2844C144.131 33.1347 144.032 33.0133 143.954 32.9381C143.873 32.8181 143.9 32.8055 143.82 32.6866C143.771 32.6619 143.676 32.567 143.57 32.4372C143.465 32.3074 143.349 32.1418 143.266 31.976C143.212 31.8597 143.19 31.624 143.087 31.3662C143.008 31.1749 142.916 30.9952 142.822 30.8208C142.776 30.7336 142.729 30.6469 142.687 30.5606C142.666 30.5174 142.646 30.4739 142.627 30.4301C142.609 30.3867 142.594 30.3414 142.58 30.2965C142.53 30.1316 142.536 29.9369 142.494 29.7634C142.463 29.6507 142.426 29.5095 142.384 29.355C142.342 29.2007 142.292 29.0343 142.242 28.8707C142.215 28.7894 142.196 28.7065 142.173 28.6272C142.151 28.5478 142.13 28.4707 142.11 28.3982C142.069 28.2532 142.032 28.1262 142.003 28.0324C141.922 27.7351 141.846 27.6315 141.813 27.3991C141.799 27.2941 141.797 27.2002 141.818 27.1323C141.836 27.0646 141.87 27.0245 141.917 27.0274C141.946 26.87 141.944 26.6593 141.925 26.4166C141.923 26.3864 141.92 26.3557 141.918 26.3243C141.916 26.2928 141.914 26.2608 141.913 26.2285C141.908 26.1638 141.903 26.0978 141.899 26.0299C141.888 25.8946 141.875 25.7539 141.861 25.6108C141.857 25.5753 141.854 25.5395 141.85 25.503C141.848 25.4671 141.846 25.431 141.844 25.3945C141.84 25.3218 141.836 25.2491 141.832 25.1761C141.823 25.0304 141.816 24.8855 141.81 24.7438C141.806 24.6731 141.809 24.6029 141.809 24.5344C141.81 24.4655 141.812 24.3981 141.814 24.3327C141.819 24.201 141.827 24.0762 141.838 23.9615C141.834 23.9189 141.829 23.8769 141.828 23.8349C141.827 23.7926 141.827 23.7506 141.827 23.7089C141.827 23.6251 141.83 23.5418 141.834 23.4584C141.839 23.3756 141.845 23.2933 141.853 23.2112L141.865 23.0887C141.869 23.0478 141.874 23.0069 141.881 22.9664C141.907 22.8048 141.933 22.6441 141.958 22.4834C141.971 22.4032 141.982 22.3233 141.992 22.2427C142.002 22.1629 142.017 22.0832 142.026 22.003C142.042 21.8747 142.04 21.7176 142.061 21.5857C142.07 21.5308 142.081 21.472 142.095 21.4101C142.108 21.3479 142.128 21.2841 142.147 21.2178C142.185 21.0855 142.226 20.9459 142.261 20.8085C142.317 20.5716 142.381 20.3529 142.439 20.1438C142.499 19.9349 142.552 19.7359 142.629 19.5512C142.645 19.3953 142.674 19.253 142.711 19.1205C142.729 19.0543 142.749 18.9904 142.771 18.9282C142.795 18.8672 142.821 18.8077 142.847 18.7491C142.899 18.6324 142.954 18.52 143.005 18.4065C143.032 18.35 143.057 18.293 143.081 18.2348C143.093 18.2058 143.105 18.1764 143.117 18.147C143.13 18.1181 143.143 18.0886 143.155 18.0586C143.227 17.8795 143.265 17.6897 143.35 17.4892C143.368 17.447 143.388 17.4059 143.408 17.3652C143.429 17.3249 143.454 17.2864 143.477 17.2462C143.524 17.1666 143.572 17.0849 143.615 16.9939C143.656 16.9036 143.691 16.8074 143.726 16.7117C143.744 16.664 143.762 16.6167 143.78 16.57C143.8 16.5245 143.822 16.4806 143.845 16.438C143.914 16.3118 143.989 16.2233 144.043 16.1193C144.078 16.0509 144.101 15.9915 144.126 15.932C144.138 15.9021 144.151 15.872 144.166 15.8409C144.18 15.8093 144.198 15.7766 144.221 15.7428C144.315 15.5987 144.444 15.4753 144.538 15.331C144.582 15.2652 144.624 15.1981 144.667 15.1297L144.699 15.0789L144.733 15.0289C144.756 14.9954 144.778 14.9619 144.801 14.9282C144.892 14.794 144.982 14.6588 145.075 14.5254C145.121 14.4595 145.165 14.3916 145.215 14.3293C145.265 14.2661 145.316 14.2044 145.366 14.1444C145.468 14.0237 145.572 13.9092 145.68 13.8053C145.699 13.7773 145.717 13.7493 145.736 13.7216C145.755 13.694 145.775 13.668 145.795 13.6415C145.835 13.5885 145.876 13.5362 145.916 13.4852C145.997 13.3822 146.08 13.2816 146.163 13.1824C146.206 13.1331 146.246 13.0829 146.29 13.0351C146.335 12.9882 146.38 12.9413 146.425 12.8941C146.515 12.8008 146.606 12.707 146.698 12.6118C146.744 12.5646 146.79 12.5173 146.837 12.469C146.883 12.4213 146.934 12.3763 146.983 12.329C147.082 12.2355 147.182 12.1399 147.283 12.0408C147.334 11.9909 147.385 11.9404 147.436 11.8892C147.488 11.8382 147.544 11.7897 147.598 11.7379C147.708 11.6357 147.818 11.5288 147.932 11.4161C147.996 11.3687 148.054 11.3224 148.113 11.2816C148.172 11.2406 148.229 11.2002 148.285 11.1587C148.397 11.0749 148.506 10.9861 148.629 10.8738C148.661 10.8541 148.681 10.85 148.704 10.8419C148.727 10.8335 148.754 10.821 148.8 10.7865C148.929 10.6826 149.065 10.5846 149.204 10.4893C149.274 10.4417 149.345 10.3947 149.416 10.3482C149.489 10.305 149.563 10.2616 149.636 10.2182C149.784 10.132 149.931 10.0454 150.077 9.95502C150.224 9.86742 150.372 9.78294 150.513 9.6872C150.541 9.68753 150.571 9.68497 150.614 9.66981C150.663 9.6377 150.713 9.60506 150.763 9.57189C150.789 9.5557 150.814 9.53836 150.84 9.5226C150.867 9.50742 150.893 9.49165 150.92 9.47632C151.027 9.41434 151.137 9.35194 151.248 9.29004C151.36 9.22929 151.472 9.16475 151.587 9.10839C151.702 9.05247 151.819 8.99828 151.934 8.94536C152.049 8.89243 152.163 8.84156 152.275 8.79284C152.389 8.7484 152.5 8.70728 152.609 8.66804C152.716 8.62917 152.821 8.59276 152.921 8.56008C152.97 8.544 153.018 8.52707 153.066 8.51452C153.114 8.50197 153.16 8.49025 153.205 8.47885C153.335 8.41765 153.473 8.3623 153.617 8.31056C153.69 8.28519 153.763 8.25777 153.839 8.23643C153.916 8.21509 153.993 8.19402 154.072 8.17358C154.229 8.13351 154.391 8.09213 154.555 8.05019C154.721 8.01268 154.891 7.9781 155.061 7.93708C155.381 7.85394 155.695 7.76783 156.001 7.72124C156.151 7.69611 156.313 7.67821 156.48 7.6549C156.647 7.6308 156.819 7.60609 156.991 7.58153C157.164 7.56426 157.335 7.54656 157.5 7.52978C157.583 7.52197 157.663 7.515 157.742 7.5077C157.82 7.50193 157.897 7.50137 157.97 7.49927C158.143 7.49598 158.313 7.52216 158.482 7.52049C158.52 7.51955 158.559 7.51846 158.598 7.51773C158.637 7.51722 158.676 7.51692 158.716 7.51663C158.795 7.51434 158.875 7.5119 158.956 7.50989C159.117 7.50586 159.282 7.49878 159.445 7.51296C160.075 7.57305 160.75 7.62422 161.4 7.7246C161.562 7.74922 161.725 7.76867 161.883 7.79591C162.041 7.82578 162.197 7.85496 162.35 7.88376C162.657 7.93608 162.945 8.01433 163.212 8.08014C163.295 8.1015 163.375 8.12322 163.452 8.14825C163.529 8.17534 163.604 8.20405 163.68 8.23341C163.834 8.29196 163.99 8.35395 164.17 8.41658C164.318 8.47062 164.467 8.52794 164.619 8.57915C164.695 8.60449 164.771 8.6302 164.847 8.65592C164.923 8.68184 165.001 8.70402 165.075 8.73384C165.226 8.79053 165.377 8.84723 165.526 8.90629C165.601 8.93574 165.676 8.96593 165.749 8.99685C165.824 9.02683 165.893 9.06475 165.965 9.09988C166.107 9.17226 166.236 9.26061 166.366 9.32897C166.536 9.41387 166.698 9.5021 166.865 9.58814C166.948 9.63145 167.032 9.67498 167.117 9.71935C167.16 9.74191 167.203 9.7641 167.246 9.78708C167.267 9.79904 167.289 9.81064 167.311 9.82223C167.332 9.8353 167.353 9.84822 167.374 9.86129C167.583 9.98945 167.789 10.1219 167.993 10.2546C168.194 10.3931 168.389 10.5386 168.586 10.6786C168.635 10.7138 168.683 10.7487 168.732 10.7838C168.78 10.8206 168.827 10.8572 168.874 10.8943C168.969 10.9674 169.063 11.0398 169.158 11.1106C169.252 11.1826 169.349 11.2497 169.441 11.3216C169.533 11.3941 169.625 11.4644 169.717 11.5336C169.823 11.6364 169.938 11.7414 170.055 11.8532C170.169 11.9687 170.288 12.0873 170.412 12.2092C170.474 12.2696 170.537 12.3314 170.6 12.3932C170.663 12.4564 170.724 12.5233 170.786 12.589C170.911 12.7205 171.039 12.8545 171.167 12.9895C171.291 13.128 171.413 13.2706 171.537 13.4116C171.598 13.482 171.66 13.5526 171.721 13.6231C171.78 13.6962 171.837 13.7688 171.895 13.8414C172.01 13.9866 172.123 14.1302 172.234 14.2714C172.338 14.4179 172.44 14.5612 172.539 14.7001C172.57 14.7715 172.606 14.8379 172.647 14.9015C172.688 14.9646 172.727 15.0286 172.77 15.0898C172.856 15.2128 172.948 15.3335 173.03 15.4681C173.277 15.8873 173.529 16.3811 173.765 16.887C173.795 16.9499 173.827 17.0121 173.855 17.0759C173.883 17.14 173.911 17.2038 173.938 17.2678C173.994 17.3954 174.051 17.5218 174.108 17.6464C174.166 17.7702 174.215 17.8962 174.268 18.0182C174.32 18.1407 174.372 18.2598 174.425 18.3754C174.78 19.3822 175.05 20.4275 175.221 21.4933C175.393 22.5588 175.466 23.6443 175.431 24.7256C175.396 25.8063 175.253 26.8822 175.001 27.9237C174.751 28.9646 174.392 29.9705 173.94 30.9112C173.929 30.9511 173.918 30.9939 173.902 31.0368C173.885 31.0798 173.867 31.1239 173.848 31.1686C173.809 31.2589 173.764 31.3518 173.717 31.4422C173.67 31.5326 173.621 31.6207 173.575 31.7014C173.563 31.7216 173.551 31.7413 173.54 31.7605C173.528 31.7793 173.516 31.7975 173.504 31.8149C173.48 31.8497 173.458 31.8822 173.437 31.9122C173.435 31.9809 173.342 32.1487 173.281 32.2816C172.961 32.7005 172.667 33.2891 172.272 33.8185C172.195 33.8663 172.104 33.9746 172.011 34.0935C171.918 34.2121 171.82 34.3405 171.722 34.4208C171.691 34.5317 171.838 34.3296 171.746 34.4887C171.701 34.521 171.645 34.565 171.583 34.6197C171.522 34.6745 171.454 34.7402 171.383 34.8135C171.312 34.8871 171.236 34.9687 171.158 35.055C171.139 35.0763 171.12 35.0986 171.099 35.1202C171.079 35.1416 171.058 35.1629 171.037 35.1847C170.995 35.2279 170.952 35.272 170.91 35.3163C170.825 35.4059 170.739 35.4962 170.655 35.5859C170.613 35.6302 170.572 35.676 170.529 35.718C170.485 35.7596 170.443 35.8008 170.401 35.8406C170.234 36.0013 170.081 36.1457 169.959 36.25C169.991 36.2184 169.983 36.1968 169.94 36.2337C169.848 36.3622 169.745 36.3589 169.616 36.4747C169.505 36.5686 169.399 36.6603 169.291 36.7428C169.181 36.8235 169.074 36.9 168.968 36.9737C168.862 37.0466 168.76 37.118 168.657 37.1848C168.551 37.2476 168.447 37.3094 168.345 37.3705C168.242 37.4306 168.141 37.4899 168.039 37.5488C167.938 37.6069 167.832 37.6585 167.729 37.714C167.522 37.8224 167.317 37.9397 167.096 38.0478C167.001 38.1257 166.746 38.3457 166.62 38.3544C166.771 38.2607 166.967 38.1497 166.925 38.1068C166.864 38.1481 166.796 38.1892 166.726 38.2292C166.691 38.2492 166.655 38.269 166.62 38.2878C166.583 38.3052 166.546 38.3219 166.51 38.3378C166.365 38.4019 166.227 38.4525 166.13 38.4768C166.049 38.5169 165.978 38.554 165.914 38.589C165.848 38.6211 165.788 38.6506 165.728 38.6792C165.609 38.7359 165.492 38.7862 165.336 38.8333C165.264 38.8671 165.381 38.7453 165.228 38.8171C165.002 38.929 164.822 38.9924 164.651 39.056C164.48 39.1226 164.311 39.1709 164.103 39.2596C164.031 39.2536 163.87 39.2938 163.707 39.3379C163.543 39.3786 163.377 39.4306 163.303 39.4679C163.156 39.4861 163.446 39.3777 163.322 39.3993C163.224 39.4238 163.126 39.4477 163.031 39.4711C162.934 39.4918 162.839 39.5122 162.745 39.5321C162.652 39.5532 162.559 39.5758 162.468 39.6008C162.377 39.6247 162.287 39.6555 162.197 39.6804C162.1 39.6723 162.033 39.6492 161.881 39.6699C161.78 39.6857 161.921 39.7179 161.766 39.7298C161.619 39.7263 161.866 39.6544 161.823 39.6201C161.621 39.639 161.655 39.6025 161.551 39.5885C161.279 39.6655 161.078 39.623 160.825 39.6396C160.76 39.6437 160.693 39.6483 160.625 39.6528C160.558 39.6578 160.489 39.6646 160.421 39.671C160.285 39.6842 160.15 39.6976 160.024 39.7009C159.807 39.6962 159.713 39.6586 159.469 39.671C159.271 39.6844 159.105 39.7227 158.884 39.7197C158.767 39.7095 158.962 39.6751 158.796 39.6719C158.7 39.6694 158.603 39.6691 158.507 39.6647C158.411 39.6576 158.316 39.6508 158.221 39.6443C158.127 39.6369 158.033 39.6294 157.941 39.6221C157.895 39.6182 157.849 39.6147 157.803 39.6104C157.758 39.6054 157.713 39.5985 157.668 39.5924C157.49 39.5676 157.318 39.5411 157.157 39.5128C157.116 39.5052 157.076 39.4994 157.038 39.4902C156.999 39.4806 156.961 39.4713 156.923 39.4624C156.848 39.4432 156.776 39.4242 156.708 39.4043C156.813 39.432 156.916 39.4562 157.016 39.4773C157.117 39.498 157.215 39.509 157.311 39.5222C157.407 39.5341 157.501 39.5447 157.594 39.5541C157.64 39.5586 157.686 39.563 157.732 39.5673L157.8 39.5735L157.868 39.5764C158.049 39.5843 158.227 39.5917 158.407 39.6048C158.452 39.6083 158.498 39.6117 158.543 39.6152C158.589 39.6176 158.634 39.6199 158.68 39.6223C158.772 39.6282 158.866 39.6361 158.961 39.647C159.076 39.5925 159.305 39.6837 159.418 39.6012C159.47 39.6297 159.294 39.6598 159.466 39.6468C159.522 39.6401 159.544 39.6254 159.632 39.6257C159.521 39.5665 159.682 39.5588 159.742 39.5113C159.822 39.5083 159.901 39.5054 159.977 39.5026C160.054 39.4992 160.129 39.4917 160.202 39.4869C160.349 39.4769 160.49 39.4674 160.628 39.458C160.663 39.4559 160.697 39.4536 160.732 39.4515C160.766 39.4476 160.8 39.4437 160.834 39.44C160.902 39.4321 160.969 39.4242 161.037 39.4161C161.172 39.3998 161.308 39.3824 161.447 39.3629C161.552 39.3606 161.382 39.4118 161.5 39.4021C161.712 39.3722 161.871 39.3324 162.123 39.3019C162.188 39.2434 162.346 39.177 162.245 39.1382C161.878 39.2173 161.438 39.2841 160.978 39.3178C160.921 39.323 160.863 39.3281 160.806 39.3332L160.719 39.3409L160.632 39.3447C160.515 39.3501 160.399 39.3555 160.283 39.3611C160.225 39.3641 160.167 39.3671 160.109 39.3705C160.052 39.3731 159.994 39.3779 159.937 39.3777C159.823 39.3794 159.709 39.3823 159.598 39.3859C159.531 39.3884 159.464 39.394 159.397 39.4003C159.33 39.406 159.266 39.4138 159.204 39.4131C159.081 39.4153 158.972 39.4083 158.895 39.37C159.294 39.4015 159.611 39.2918 159.954 39.2701C160.176 39.2477 160.406 39.2401 160.637 39.2347C160.695 39.2341 160.752 39.2299 160.809 39.225C160.866 39.22 160.923 39.215 160.979 39.2093C161.092 39.1978 161.203 39.1836 161.31 39.1638C161.432 39.1435 161.478 39.1108 161.587 39.0897C161.672 39.0735 161.824 39.0807 161.92 39.06C162.024 39.0374 162.024 39.0108 162.114 38.9964C162.297 38.9599 162.446 38.9633 162.647 38.9133C162.69 38.9029 162.731 38.8917 162.773 38.8799C162.815 38.8687 162.857 38.8563 162.897 38.8416C162.979 38.8122 163.061 38.783 163.145 38.7536C163.227 38.7242 163.312 38.6948 163.398 38.6676C163.441 38.6536 163.485 38.6402 163.53 38.6271C163.573 38.6122 163.618 38.5981 163.663 38.5841C163.723 38.5411 163.676 38.5006 163.591 38.5203C163.486 38.5599 163.4 38.5808 163.326 38.604C163.252 38.6255 163.189 38.644 163.125 38.6623C163.062 38.6805 162.998 38.6986 162.922 38.7202C162.884 38.7303 162.844 38.7429 162.798 38.7539C162.753 38.7645 162.703 38.7764 162.647 38.7892C162.696 38.7718 162.723 38.7542 162.714 38.7351C162.578 38.7718 162.533 38.7978 162.433 38.793C162.763 38.715 162.709 38.6327 162.587 38.6176C162.486 38.6443 162.382 38.6706 162.276 38.6968C162.223 38.7097 162.169 38.7228 162.116 38.736C162.062 38.7497 162.007 38.7575 161.952 38.7684C161.842 38.7889 161.73 38.8097 161.619 38.8301C161.508 38.8489 161.398 38.8737 161.287 38.8858C161.066 38.9159 160.85 38.9456 160.647 38.9736C160.442 38.9939 160.25 39.016 160.08 39.0408C160.041 39.0318 160.01 39.0198 159.972 39.0101C159.934 38.9991 159.89 38.9899 159.828 38.9876C159.06 39.011 158.195 39.0201 157.379 38.9023C157.614 38.9067 157.85 38.9253 158.091 38.9264C158.212 38.9296 158.333 38.934 158.455 38.9402L158.546 38.9446L158.638 38.9451C158.7 38.9454 158.762 38.9463 158.824 38.9467C158.949 38.9489 159.074 38.9513 159.201 38.9534C159.265 38.9562 159.328 38.9526 159.393 38.9515C159.457 38.9502 159.522 38.9492 159.587 38.9479C159.716 38.9449 159.848 38.9426 159.981 38.9398C160.113 38.931 160.248 38.9217 160.384 38.9127C160.424 38.8972 160.388 38.8678 160.496 38.8648C160.555 38.8635 160.614 38.8619 160.674 38.8587C160.733 38.8523 160.794 38.8464 160.854 38.8402C160.975 38.827 161.097 38.8122 161.215 38.7967C161.274 38.789 161.333 38.7828 161.39 38.7732C161.447 38.7627 161.502 38.7529 161.555 38.7429C161.663 38.7238 161.762 38.7064 161.852 38.6925C161.925 38.6512 161.998 38.6121 162.068 38.5691C162.138 38.5247 162.206 38.4802 162.272 38.4357C162.411 38.4079 162.544 38.3768 162.673 38.3442C162.801 38.3082 162.923 38.2649 163.043 38.2231C163.163 38.1802 163.28 38.1388 163.393 38.0913C163.506 38.0413 163.616 37.9908 163.726 37.9402L163.89 37.8641C163.945 37.8386 164 37.8145 164.054 37.7855C164.161 37.7296 164.269 37.6742 164.38 37.6197C164.602 37.5153 164.824 37.3937 165.067 37.2829C165.047 37.2516 165.118 37.2073 165.136 37.1707C165.045 37.1795 164.977 37.1676 164.877 37.1854C164.797 37.2204 164.715 37.2521 164.637 37.2861C164.598 37.3022 164.56 37.3213 164.523 37.3381C164.486 37.3549 164.45 37.3732 164.417 37.3929C164.309 37.422 164.196 37.4557 164.08 37.4936C164.022 37.5123 163.963 37.5322 163.903 37.5528C163.843 37.5709 163.781 37.5896 163.719 37.6082C163.594 37.6466 163.466 37.6879 163.336 37.7308C163.304 37.7414 163.272 37.7534 163.239 37.7629C163.205 37.7725 163.172 37.7817 163.138 37.7913C163.072 37.8104 163.004 37.8298 162.937 37.8492C162.397 38.0149 161.816 38.1369 161.269 38.2075C161.198 38.1874 161.187 38.162 161.204 38.1342C161.22 38.1064 161.265 38.0752 161.305 38.0403C161.433 38.0068 161.559 37.9812 161.684 37.959C161.747 37.9485 161.81 37.9381 161.872 37.9276C161.935 37.9173 161.997 37.9023 162.059 37.8897C162.309 37.8353 162.563 37.7829 162.818 37.6631C162.893 37.5669 162.873 37.51 162.784 37.4906C162.74 37.481 162.678 37.4808 162.602 37.4901C162.564 37.4947 162.523 37.5017 162.478 37.5107C162.433 37.5175 162.384 37.5268 162.333 37.5384C162.247 37.5578 162.155 37.5789 162.057 37.6014C161.958 37.6228 161.856 37.6523 161.749 37.6702C161.642 37.6908 161.532 37.7119 161.422 37.7336C161.311 37.7548 161.201 37.7804 161.09 37.7944C160.981 37.8116 160.873 37.8284 160.769 37.8446C160.717 37.8529 160.666 37.8609 160.617 37.8688C160.593 37.8729 160.568 37.877 160.544 37.8807C160.52 37.8832 160.497 37.8862 160.473 37.8884C160.287 37.9096 160.128 37.9294 160.016 37.9452C159.888 37.9552 159.76 37.9513 159.632 37.9541L159.249 37.9607L158.866 37.9503L158.674 37.9458L158.579 37.9437L158.483 37.9368L158.102 37.9111L157.911 37.8987L157.721 37.8768L157.341 37.8345C157.309 37.8309 157.277 37.8288 157.246 37.8235L157.151 37.8081L156.962 37.7781C155.954 37.6183 154.954 37.351 153.997 36.9388C154.133 36.9886 154.27 37.0327 154.403 37.081C154.537 37.1276 154.668 37.181 154.802 37.2195C155.068 37.3022 155.327 37.3943 155.591 37.4585C155.722 37.4929 155.851 37.5298 155.981 37.562C156.112 37.5885 156.242 37.615 156.372 37.6413C156.437 37.6537 156.501 37.6664 156.565 37.679C156.598 37.6855 156.63 37.6903 156.663 37.6944L156.76 37.7065C156.89 37.7225 157.019 37.7373 157.148 37.7502C157.141 37.7755 157.177 37.7929 157.256 37.802C157.384 37.8131 157.513 37.8243 157.643 37.8359C157.707 37.8419 157.773 37.8477 157.838 37.8539C157.871 37.8566 157.903 37.8607 157.936 37.8625L158.035 37.8665C158.167 37.8732 158.299 37.8795 158.431 37.8859L158.529 37.8912C158.562 37.8939 158.595 37.8948 158.628 37.8947C158.694 37.8948 158.759 37.8953 158.825 37.8958C158.956 37.8977 159.085 37.8998 159.213 37.9016C159.342 37.8986 159.468 37.8955 159.592 37.8929C159.655 37.8917 159.716 37.8908 159.777 37.8897C159.838 37.889 159.898 37.8893 159.958 37.8843C160.076 37.8774 160.192 37.8715 160.305 37.8669C160.351 37.8515 160.402 37.8386 160.458 37.8278C160.486 37.8225 160.515 37.8175 160.544 37.8127C160.574 37.8066 160.604 37.8006 160.636 37.7951C160.761 37.7731 160.897 37.7552 161.034 37.7375C161.068 37.733 161.103 37.7288 161.137 37.7244L161.188 37.7175L161.238 37.7081C161.304 37.695 161.369 37.6819 161.432 37.6677C161.556 37.6398 161.668 37.6075 161.757 37.5682C161.696 37.51 161.587 37.4804 161.445 37.4698C161.375 37.4645 161.296 37.4641 161.211 37.468C161.189 37.469 161.168 37.4698 161.145 37.4711C161.123 37.4711 161.101 37.4718 161.077 37.4722C161.032 37.4732 160.985 37.475 160.936 37.4776C161.132 37.4581 161.317 37.4086 161.493 37.3635C161.581 37.3406 161.668 37.3184 161.751 37.2965C161.835 37.272 161.916 37.2466 161.995 37.2256C162.06 37.2076 162.138 37.1902 162.22 37.1732C162.302 37.1552 162.389 37.1404 162.469 37.1173C162.631 37.0754 162.777 37.0354 162.839 37.0021C162.868 36.9861 162.799 36.9768 162.859 36.958C162.754 36.9911 163.051 36.9113 163.072 36.9017C163.215 36.8688 163.193 36.8869 163.354 36.8266C163.563 36.7473 163.56 36.751 163.678 36.6672C163.854 36.5895 164.032 36.5204 164.207 36.4467C164.38 36.3675 164.553 36.2912 164.726 36.2149C164.896 36.1317 165.064 36.045 165.232 35.9581C165.318 35.9166 165.398 35.8658 165.48 35.8171C165.561 35.7679 165.643 35.7177 165.724 35.6668C165.757 35.6457 165.809 35.6155 165.854 35.5898C165.898 35.5627 165.934 35.5382 165.939 35.5343C165.996 35.4878 165.931 35.5011 166.008 35.4455C166.052 35.4138 166.048 35.4515 166.113 35.4053C166.174 35.3628 166.237 35.3184 166.302 35.2735C166.334 35.2509 166.367 35.2292 166.399 35.2058C166.43 35.1818 166.462 35.1574 166.494 35.133C166.621 35.0366 166.749 34.9416 166.871 34.8565C167.021 34.7452 167.171 34.6207 167.324 34.4977C167.402 34.4378 167.474 34.3697 167.547 34.3034C167.62 34.2371 167.693 34.1711 167.765 34.1055C167.801 34.0732 167.837 34.0405 167.873 34.0085C167.908 33.9758 167.94 33.9409 167.974 33.9077C168.04 33.8412 168.106 33.7758 168.169 33.7121C168.233 33.6493 168.295 33.5882 168.354 33.5293C168.411 33.4683 168.466 33.4096 168.517 33.3544C168.603 33.2496 168.452 33.3511 168.576 33.2181C168.754 33.0277 168.912 32.8154 169.08 32.6087C169.167 32.507 169.241 32.3947 169.321 32.2863C169.4 32.1769 169.481 32.0682 169.559 31.9573C169.634 31.8436 169.709 31.7292 169.783 31.6142C169.821 31.5571 169.859 31.4999 169.897 31.4423C169.934 31.3847 169.967 31.3236 170.003 31.2646C170.073 31.1458 170.144 31.0267 170.214 30.9075C170.251 30.8487 170.283 30.7868 170.315 30.7249L170.412 30.5404C170.448 30.465 170.37 30.4984 170.435 30.3947C170.468 30.3256 170.493 30.3061 170.517 30.2883C170.542 30.2703 170.568 30.2555 170.595 30.1922C170.618 30.1076 170.635 30.0292 170.63 29.9759C170.662 29.9035 170.693 29.8311 170.726 29.7584C170.758 29.6858 170.793 29.6148 170.821 29.5398C170.88 29.3915 170.939 29.2438 171.001 29.0958C171.016 29.0588 171.034 29.0227 171.047 28.9846L171.087 28.8714C171.115 28.7964 171.142 28.7206 171.17 28.6452C171.198 28.5699 171.226 28.4945 171.254 28.419C171.281 28.3428 171.303 28.2651 171.328 28.1887C171.538 27.5771 171.695 26.9423 171.807 26.2991C172.018 25.0984 172.017 23.8628 171.888 22.711C171.782 21.8042 171.627 20.9333 171.334 20.165C171.293 20.0333 171.253 19.9042 171.213 19.7769L171.198 19.7289L171.181 19.6825C171.169 19.6513 171.158 19.6205 171.147 19.5896C171.123 19.528 171.1 19.4666 171.077 19.4057C171.055 19.3449 171.032 19.2845 171.009 19.2239L170.975 19.1338L170.936 19.0461C170.884 18.9292 170.833 18.8132 170.782 18.6979C170.755 18.6406 170.733 18.5816 170.703 18.5262L170.618 18.358C170.561 18.2462 170.504 18.1342 170.447 18.0221C170.386 17.9116 170.322 17.8035 170.259 17.6929C170.228 17.6378 170.196 17.5824 170.164 17.5271C170.149 17.4993 170.133 17.4713 170.117 17.4437L170.065 17.3624C169.964 17.2064 169.862 17.045 169.754 16.8874C169.641 16.7336 169.528 16.5789 169.417 16.4275C169.301 16.2795 169.184 16.1378 169.077 15.9985C169.05 15.9637 169.023 15.9292 168.997 15.8954C168.969 15.863 168.941 15.8305 168.914 15.7986C168.86 15.7346 168.809 15.6724 168.76 15.6114C168.726 15.5694 168.693 15.5194 168.658 15.4683C168.641 15.4427 168.624 15.4163 168.605 15.3912C168.585 15.3669 168.564 15.343 168.542 15.3205C168.409 15.1843 168.248 15.0746 168.115 14.9409C168.021 14.854 167.928 14.7645 167.837 14.6734C167.792 14.6273 167.746 14.5813 167.701 14.5353L167.667 14.5007L167.631 14.4677L167.56 14.4019C167.369 14.2273 167.183 14.0448 166.974 13.8959C166.859 13.8103 166.747 13.723 166.632 13.6404C166.515 13.5617 166.398 13.484 166.281 13.406L166.107 13.289C166.047 13.2517 165.986 13.217 165.926 13.1808C165.806 13.1086 165.686 13.0366 165.565 12.9638L165.514 12.9325L165.463 12.9037C165.428 12.8839 165.395 12.864 165.361 12.8445C165.293 12.804 165.227 12.7625 165.161 12.7208C165.095 12.6795 165.029 12.638 164.962 12.5961C164.895 12.5558 164.824 12.5215 164.754 12.486C164.66 12.4398 164.56 12.4 164.459 12.3601C164.408 12.3403 164.358 12.3201 164.307 12.3001C164.256 12.2818 164.205 12.2627 164.155 12.2416C164.015 12.1826 163.876 12.1201 163.737 12.0557C163.597 11.9968 163.454 11.9412 163.315 11.8831C163.244 11.8547 163.174 11.8261 163.105 11.7977C163.033 11.7736 162.962 11.7499 162.892 11.7261C162.75 11.6796 162.611 11.6349 162.472 11.5955C162.284 11.5533 162.095 11.5113 161.905 11.469C161.858 11.4574 161.81 11.4494 161.762 11.4418L161.618 11.4175C161.521 11.4007 161.425 11.384 161.329 11.3672C160.943 11.3063 160.555 11.2455 160.17 11.1852C159.955 11.1666 159.727 11.1668 159.495 11.1586C159.437 11.1565 159.379 11.1543 159.32 11.1523C159.262 11.1509 159.203 11.1533 159.144 11.1535C159.026 11.1543 158.908 11.1548 158.789 11.1557C158.671 11.1528 158.553 11.1614 158.437 11.1662C158.32 11.1706 158.204 11.1755 158.091 11.1795C158.034 11.1805 157.978 11.1864 157.922 11.1911C157.866 11.1955 157.811 11.1997 157.756 11.204C157.647 11.2121 157.541 11.2195 157.437 11.2272C157.112 11.321 156.775 11.3617 156.428 11.4254C156.341 11.439 156.254 11.4532 156.165 11.4669C156.078 11.4851 155.989 11.5038 155.9 11.5226C155.722 11.5623 155.54 11.5984 155.36 11.6614C155.284 11.6865 155.239 11.7192 155.163 11.7469C155.096 11.7712 155.028 11.7948 154.959 11.8177C154.892 11.8436 154.824 11.8696 154.756 11.8956C154.619 11.9469 154.481 11.9946 154.342 12.0436C154.205 12.0979 154.068 12.1508 153.931 12.2024C153.863 12.2292 153.793 12.2513 153.727 12.2809C153.66 12.3094 153.593 12.3378 153.527 12.3664C153.461 12.3945 153.395 12.4227 153.33 12.4502C153.265 12.4791 153.198 12.5035 153.136 12.536C153.011 12.5982 152.888 12.6594 152.769 12.7185C152.709 12.7495 152.649 12.7773 152.593 12.8103C152.537 12.8437 152.482 12.8765 152.429 12.9089C152.321 12.9745 152.218 13.0394 152.122 13.1037C152.08 13.1181 152.042 13.1368 152.005 13.1565C151.967 13.1755 151.931 13.1964 151.896 13.2176C151.826 13.2603 151.761 13.3065 151.697 13.3543C151.666 13.3783 151.635 13.4022 151.604 13.4264C151.572 13.4506 151.541 13.4745 151.512 13.5013C151.453 13.5537 151.393 13.6056 151.329 13.6555C151.052 13.8645 150.78 14.0391 150.515 14.2461C150.433 14.3183 150.374 14.4032 150.293 14.4782C150.231 14.5356 150.167 14.5906 150.102 14.6439C150.068 14.6703 150.037 14.6983 150.005 14.7267C149.973 14.7549 149.941 14.7825 149.909 14.811C149.844 14.8674 149.778 14.924 149.711 14.9824C149.644 15.0413 149.574 15.0992 149.51 15.1682C149.317 15.37 149.131 15.5899 148.957 15.8333C148.912 15.8929 148.867 15.9527 148.82 16.012C148.796 16.0416 148.773 16.0713 148.749 16.1011C148.725 16.1307 148.703 16.1627 148.68 16.1932C148.588 16.3164 148.489 16.4376 148.378 16.5552C148.362 16.5814 148.345 16.6084 148.328 16.6358C148.312 16.6643 148.295 16.6937 148.278 16.7237C148.244 16.783 148.208 16.8455 148.172 16.9092C148.135 16.9723 148.096 17.0374 148.056 17.1027C148.036 17.1354 148.016 17.1683 147.995 17.2017C147.976 17.2358 147.957 17.2701 147.938 17.3046C147.861 17.4419 147.78 17.5791 147.697 17.7101C147.654 17.7749 147.616 17.8414 147.577 17.9054C147.538 17.9694 147.498 18.031 147.458 18.0898C147.412 18.2002 147.359 18.3071 147.311 18.4169C147.265 18.5269 147.217 18.636 147.167 18.7445L147.09 18.907L147.051 18.9875L147.016 19.0704C146.969 19.1804 146.921 19.2905 146.871 19.4001L146.798 19.5649C146.774 19.62 146.754 19.677 146.732 19.7334C146.689 19.8461 146.646 19.9588 146.603 20.0718C146.557 20.1846 146.524 20.3015 146.49 20.4181C146.455 20.5344 146.422 20.6517 146.391 20.7695C146.38 20.809 146.372 20.8493 146.366 20.8893C146.359 20.9293 146.353 20.9687 146.346 21.0082C146.334 21.0869 146.322 21.165 146.308 21.2423C146.294 21.3198 146.276 21.3963 146.257 21.4736C146.24 21.5513 146.218 21.6292 146.187 21.7076C146.187 21.8827 146.15 22.0664 146.125 22.262C146.111 22.3596 146.094 22.459 146.077 22.56C146.069 22.6107 146.06 22.6614 146.053 22.7128C146.048 22.7642 146.044 22.8161 146.039 22.8682C146.001 23.279 146.011 23.7102 146.021 24.139C146.027 24.2918 146.025 24.454 146.027 24.6186C146.035 24.7829 146.043 24.9493 146.053 25.1109C146.056 25.1509 146.057 25.1912 146.063 25.2308C146.068 25.2704 146.073 25.3092 146.079 25.3478C146.09 25.4249 146.103 25.4994 146.116 25.5711C146.13 25.6424 146.145 25.7105 146.163 25.7747C146.17 25.8066 146.181 25.8377 146.192 25.8669C146.204 25.8966 146.215 25.9249 146.228 25.9521C146.379 26.0368 146.368 26.1888 146.335 26.3835C146.308 26.5762 146.268 26.8122 146.339 27.0464C146.455 27.2851 146.522 27.2342 146.644 27.3166C146.668 27.3695 146.686 27.422 146.702 27.475C146.719 27.5276 146.729 27.5814 146.744 27.6338C146.771 27.7389 146.791 27.8458 146.811 27.9548C146.86 28.0744 146.925 28.1703 147 28.2726C147.073 28.376 147.145 28.489 147.2 28.6485Z" fill="#B90000"/>
<path d="M199.154 38V35.8H201.874V25.32H188.234V35.8H191.194V38H183.114V35.8H185.714V12.2H183.114V10H191.194V12.2H188.234V22.92H201.874V12.2H199.154V10H206.834V12.2H204.394V35.8H207.234V38H199.154Z" fill="white"/>
</svg>
