<svg xmlns="http://www.w3.org/2000/svg" width="210" height="48" fill="none"><path fill="#fff" d="M9.52 35.64q4.44 0 6.6-2.24 1.24-1.28 1.24-3.04c0-1.76-.293-2.133-.88-2.88a5.3 5.3 0 0 0-2.2-1.76 17.6 17.6 0 0 0-3.04-1.08q-1.64-.48-3.32-1a18 18 0 0 1-3-1.24 6.1 6.1 0 0 1-2.24-2.04q-.84-1.32-.84-3.16 0-3.2 2.4-5.24t6.36-2.04c3.96 0 5.12.267 7.44.8v.04h.12l.44 5-1.96.32-.44-3.36q-2.24-.4-4.96-.4-2.68 0-4.68 1.2-2 1.16-2 3.32c0 2.16.533 2.533 1.6 3.28q1.6 1.12 3.88 1.72 2.28.56 4.56 1.28a8.7 8.7 0 0 1 3.88 2.48q1.6 1.76 1.6 4.64 0 3.88-2.88 5.84t-7.16 1.96q-5.4 0-9.04-2.44l.04-4.24 1.96-.2.08 3.04q3.04 1.44 6.44 1.44M38.343 38v-2.2h2.72V25.32h-13.64V35.8h2.96V38h-8.08v-2.2h2.6V12.2h-2.6V10h8.08v2.2h-2.96v10.72h13.64V12.2h-2.72V10h7.68v2.2h-2.44v23.6h2.84V38zm10.962-25.8V10h8.08v2.2h-2.76v13.76q0 6.2 2.44 8.24 1.16 1 2.36 1.4 1.2.36 2.8.36 3.24 0 5.28-2.4 2.08-2.4 2.08-7.6V12.2h-2.64V10h7.68v2.2h-2.52V26q0 6.28-2.76 9.24-2.76 2.92-7.12 2.92-2.2 0-3.88-.44-1.64-.48-3.2-1.72-3.24-2.52-3.24-10V12.2zm28.746 0V10h5.48l15.92 24.4-.16-22.2h-2.6V10h7.64v2.2h-2.52V38h-2.92L82.93 13.6l.16 22.2h3.04V38h-8.08v-2.2h2.56V12.2zm29.219 0V10h5.48l15.92 24.4-.16-22.2h-2.6V10h7.64v2.2h-2.52V38h-2.92l-15.96-24.4.16 22.2h3.04V38h-8.08v-2.2h2.56V12.2z"/><path fill="#B90000" fill-rule="evenodd" d="m163.103 39.188-.133.036-.144.029-.297.056c-.097.02-.192.04-.276.06-.085.021-.162.039-.222.062-.067.013.046-.079-.066-.073a2.5 2.5 0 0 1-.388.124l-.084.02-.092.014c.001.108.494-.05.533.033.097-.023.169-.04.229-.048l.083-.005q.037 0 .074.009a3 3 0 0 1 .428-.107c.11-.021.211-.034.354-.096-.094-.032.041-.058.001-.114m.09-.002q.016.017-.032.035c.103.03.271-.107.032-.035M147.2 28.648l.036.113.031.118c.021.08.041.16.071.236l.053.13q.028.062.061.123l.125.24.061.12q.028.061.061.122.065.12.122.25.05.115.095.232c.03.078.065.152.097.23l.101.23q.026.06.054.117.03.058.065.115c.134.224.163.307.248.462q.1.165.195.31c.062.097.118.19.176.27.111.164.191.306.212.434q.03.064.069.126l.076.128.162.259c.053.088.113.167.166.247q.082.119.147.227c.026.045.106.118.117.136a7 7 0 0 1 .309.509c.044.085.095.162.143.242a20 20 0 0 0 .26.425l.043.06a8 8 0 0 0 .397.495q.12.123.264.252c.033.108.025.227.122.401.044.076.185.19.213.256.052.119.013.195-.003.28s-.01.178.137.334c0 .045-.069.014-.099.025-.139.266-.413.394-.441.65-.325-.039-.352.13-.623.117a1.5 1.5 0 0 1-.315-.06c-.116-.033-.237-.07-.338-.092-.116-.025-.232-.057-.344-.087-.113-.03-.218-.064-.319-.084-.052.074-.291-.085-.381-.06q-.118-.062-.227-.116l-.211-.113a7 7 0 0 1-.436-.247c-.024 0-.055-.01-.084-.017-.028-.008-.054-.015-.07-.004-.328-.203-.677-.395-1.019-.652-.173-.127-.356-.259-.53-.419a10 10 0 0 1-.268-.247c-.091-.087-.185-.176-.272-.277a8 8 0 0 1-.274-.32c-.06-.079-.128-.16-.194-.248l-.203-.273c-.138-.186-.287-.375-.417-.562a18 18 0 0 0-.379-.507 3 3 0 0 0-.288-.346c-.081-.12-.054-.133-.134-.251-.049-.025-.144-.12-.25-.25a2.7 2.7 0 0 1-.304-.461c-.054-.116-.076-.352-.179-.61a6 6 0 0 0-.265-.545q-.07-.13-.135-.26a1.6 1.6 0 0 1-.107-.264c-.05-.165-.044-.36-.086-.534l-.11-.408c-.042-.154-.092-.32-.142-.484-.027-.082-.046-.165-.069-.244l-.063-.229a17 17 0 0 0-.107-.366c-.081-.297-.157-.4-.19-.633a.7.7 0 0 1 .005-.267c.018-.067.052-.108.099-.105.029-.157.027-.368.008-.61l-.007-.093-.005-.096-.014-.198-.038-.42-.011-.107-.006-.108-.012-.219q-.013-.219-.022-.432c-.004-.07-.001-.141-.001-.21l.005-.201q.007-.199.024-.371-.007-.064-.01-.127l-.001-.126a5 5 0 0 1 .026-.498l.012-.122q.006-.061.016-.123l.077-.483q.02-.12.034-.24c.01-.08.025-.16.034-.24.016-.128.014-.285.035-.417q.013-.083.034-.176t.052-.192c.038-.133.079-.272.114-.41.056-.236.12-.455.178-.664.06-.21.113-.408.19-.593a2.6 2.6 0 0 1 .218-.802l.158-.342a3 3 0 0 0 .112-.26l.038-.088c.072-.18.11-.37.195-.57q.028-.063.058-.124.033-.06.069-.119a3 3 0 0 0 .138-.252c.041-.09.076-.187.111-.282l.054-.142q.03-.069.065-.132c.069-.126.144-.215.198-.319.035-.068.058-.127.083-.187q.018-.045.04-.091a1 1 0 0 1 .055-.098c.094-.144.223-.268.317-.412q.065-.099.129-.201l.032-.051.034-.05.068-.1q.136-.203.274-.404.067-.1.14-.196.076-.095.151-.185.153-.181.314-.339l.056-.083q.029-.042.059-.08a11 11 0 0 1 .368-.46q.063-.075.127-.147l.135-.14.273-.283.139-.143q.07-.07.146-.14a22 22 0 0 0 .453-.44l.162-.151q.164-.154.334-.322.094-.072.181-.134l.172-.123c.112-.084.221-.173.344-.285.032-.02.052-.024.075-.032a.4.4 0 0 0 .096-.056 7 7 0 0 1 .404-.297l.212-.14.22-.13q.222-.13.441-.264c.147-.088.295-.172.436-.268a.3.3 0 0 0 .101-.017l.149-.098.077-.05.08-.046q.161-.093.328-.186c.112-.06.224-.125.339-.182a18 18 0 0 1 .688-.315 14 14 0 0 1 .646-.233q.073-.026.145-.045l.139-.036a5 5 0 0 1 .412-.168q.109-.04.222-.075l.233-.062.483-.124q.25-.054.506-.113c.32-.083.634-.17.94-.216.15-.025.312-.043.479-.066l.511-.073.509-.052.242-.022q.118-.007.228-.009c.173-.003.343.023.512.021l.116-.002.118-.001.24-.007c.161-.004.326-.011.489.003.63.06 1.305.111 1.955.212.162.024.325.044.483.07l.467.089c.307.052.595.13.862.196q.125.031.24.068.115.041.228.085c.154.059.31.12.49.184q.221.082.449.162l.228.077c.076.026.154.048.228.078a27 27 0 0 1 .674.263c.075.03.144.068.216.103.142.072.271.16.401.229.17.085.332.173.499.26l.252.13.129.068.065.035.063.04q.313.192.619.393c.201.138.396.284.593.424l.146.105.142.11q.142.11.284.217c.094.072.191.139.283.21q.138.109.276.213l.338.32a34 34 0 0 0 .545.54c.063.062.124.13.186.195l.381.4.37.423.184.211.174.218.339.43.305.43q.047.105.108.2.06.097.123.189c.086.123.178.244.26.378.247.42.499.913.735 1.419q.047.094.09.189l.083.192q.084.191.17.378c.058.124.107.25.16.372q.078.185.157.357c.355 1.007.625 2.052.797 3.118.171 1.066.244 2.151.209 3.233a15.8 15.8 0 0 1-.43 3.198 15 15 0 0 1-1.061 2.987q-.015.06-.038.126a4 4 0 0 1-.185.405 9 9 0 0 1-.142.26l-.035.058-.036.055-.067.097c-.002.069-.095.237-.156.37-.32.419-.614 1.007-1.009 1.537-.077.047-.168.156-.261.274-.093.12-.191.247-.289.328-.031.11.116-.091.024.068a2 2 0 0 0-.163.13 5 5 0 0 0-.2.194q-.107.112-.225.242l-.059.065-.062.065-.127.131-.255.27q-.062.067-.126.132l-.128.123c-.167.16-.32.305-.442.409.032-.032.024-.053-.019-.016-.092.128-.195.125-.324.24q-.165.143-.325.269a16 16 0 0 1-.634.442l-.312.185-.306.179c-.101.058-.207.11-.31.165-.207.108-.412.226-.633.334-.095.078-.35.298-.476.306.151-.093.347-.204.305-.247a3 3 0 0 1-.415.23 2.6 2.6 0 0 1-.38.14 6 6 0 0 0-.216.112l-.186.09a2.6 2.6 0 0 1-.392.154c-.072.034.045-.088-.108-.016-.226.112-.406.175-.577.239-.171.067-.34.115-.548.204-.072-.006-.233.034-.396.078-.164.04-.33.093-.404.13-.147.018.143-.09.019-.069l-.291.072-.286.061a6 6 0 0 0-.277.069c-.091.024-.181.055-.271.08-.097-.009-.164-.032-.316-.011-.101.016.04.048-.115.06-.147-.004.1-.076.057-.11-.202.019-.168-.017-.272-.031-.272.077-.473.034-.726.05l-.2.014-.204.018c-.136.013-.271.027-.397.03-.217-.005-.311-.042-.555-.03-.198.013-.364.052-.585.049-.117-.01.078-.045-.088-.048l-.289-.007-.286-.02-.28-.023-.138-.012-.135-.018q-.268-.035-.511-.08-.062-.01-.119-.022l-.115-.028-.215-.058q.158.042.308.073c.101.021.199.032.295.045a13 13 0 0 0 .421.045l.068.007.068.002q.27.01.539.029l.136.01.137.007q.138.009.281.025c.115-.054.344.037.457-.046.052.029-.124.059.048.046.056-.007.078-.022.166-.021-.111-.06.05-.067.11-.115l.235-.008q.115-.007.225-.016l.426-.029.104-.006.102-.012.203-.024q.202-.024.41-.053c.105-.002-.065.049.053.04.212-.03.371-.07.623-.101.065-.059.223-.125.122-.164a9 9 0 0 1-1.267.18l-.172.015-.087.008-.087.004-.523.026q-.086.005-.172.007-.172.002-.339.008a4 4 0 0 0-.201.014c-.067.006-.131.014-.193.013a.7.7 0 0 1-.309-.043c.399.032.716-.078 1.059-.1.222-.022.452-.03.683-.035q.087-.001.172-.01l.17-.016q.17-.016.331-.045c.122-.02.168-.053.277-.074.085-.017.237-.01.333-.03.104-.023.104-.05.194-.064.183-.036.332-.033.533-.083a3.5 3.5 0 0 0 .498-.16 7 7 0 0 1 .385-.126l.133-.043c.06-.043.013-.083-.072-.064-.105.04-.191.06-.265.084l-.201.058-.203.058-.124.034-.151.035c.049-.017.076-.035.067-.054-.136.037-.181.063-.281.058.33-.078.276-.16.154-.175l-.311.079-.16.039c-.054.014-.109.022-.164.032l-.333.062c-.111.019-.221.044-.332.056l-.64.088c-.205.02-.397.042-.567.067-.039-.01-.07-.021-.108-.03a.6.6 0 0 0-.144-.023c-.768.023-1.633.032-2.449-.086.235.005.471.023.712.024q.181.005.364.014l.091.005h.092l.186.002.377.006q.095.003.192-.002l.194-.003.394-.008.403-.027c.04-.016.004-.045.112-.048l.178-.006.18-.019q.183-.02.361-.043.089-.01.175-.024l.165-.03q.162-.03.297-.05c.073-.042.146-.08.216-.124s.138-.089.204-.133q.208-.043.401-.092c.128-.036.25-.08.37-.12.12-.044.237-.085.35-.133l.333-.15.164-.077q.083-.037.164-.078.16-.085.326-.166c.222-.105.444-.226.687-.337-.02-.031.051-.076.069-.112-.091.008-.159-.003-.259.014l-.24.101q-.059.025-.114.052a1 1 0 0 0-.106.055 7 7 0 0 0-.514.16l-.184.055q-.188.059-.383.123l-.097.032-.101.028-.201.058a10.3 10.3 0 0 1-1.668.359c-.071-.02-.082-.046-.065-.074.016-.028.061-.059.101-.094q.192-.049.379-.081l.188-.031c.063-.01.125-.026.187-.038.25-.055.504-.107.759-.227.075-.096.055-.153-.034-.172a.6.6 0 0 0-.182 0l-.124.02a2 2 0 0 0-.145.027l-.276.063c-.099.022-.201.051-.308.07l-.327.063c-.111.02-.221.046-.332.06l-.321.05-.152.025-.073.012-.071.007c-.186.022-.345.041-.457.057-.128.01-.256.006-.384.01l-.383.006-.383-.01-.192-.005-.095-.002-.096-.007-.381-.026-.191-.012-.19-.022-.38-.043q-.048-.004-.095-.01l-.095-.016-.189-.03a12.4 12.4 0 0 1-2.965-.84l.406.143c.134.047.265.1.399.138.266.083.525.175.789.24l.39.103.391.08.193.037q.049.009.098.015l.097.012q.195.024.388.044-.01.039.108.052l.387.034.195.018.098.008.099.005.396.019.098.005q.05.004.099.004h.197l.388.007.379-.01.185-.002c.061-.001.121 0 .181-.006q.177-.01.347-.017a1.2 1.2 0 0 1 .239-.054l.092-.018a9 9 0 0 1 .398-.058l.103-.013.051-.006.05-.01.194-.04c.124-.028.236-.06.325-.1-.061-.058-.17-.088-.312-.098a2 2 0 0 0-.234-.002l-.066.003-.068.001-.141.006c.196-.02.381-.07.557-.114l.258-.067q.126-.038.244-.071c.065-.018.143-.036.225-.053s.169-.033.249-.056c.162-.042.308-.082.37-.115.029-.016-.04-.025.02-.044-.105.033.192-.047.213-.056.143-.033.121-.015.282-.075.209-.08.206-.076.324-.16.176-.078.354-.147.529-.22q.26-.119.519-.232.254-.125.506-.257c.086-.041.166-.092.248-.14l.244-.151c.033-.021.085-.052.13-.077.044-.027.08-.052.085-.056.057-.046-.008-.033.069-.088.044-.032.04.006.105-.04l.189-.133.097-.067a16 16 0 0 1 .472-.35c.15-.11.3-.235.453-.358.078-.06.15-.128.223-.195l.218-.197.108-.098.101-.1.195-.196.185-.183.163-.175c.086-.104-.065-.003.059-.136.178-.19.336-.403.504-.61.087-.101.161-.213.241-.322q.12-.164.238-.329.113-.17.224-.343l.114-.172q.054-.087.106-.177l.211-.358q.054-.088.101-.182l.097-.185c.036-.075-.042-.042.023-.145a.24.24 0 0 1 .082-.107c.025-.018.051-.032.078-.096a.7.7 0 0 0 .035-.216l.096-.218c.032-.072.067-.143.095-.218q.088-.222.18-.444c.015-.037.033-.073.046-.111l.04-.114.083-.226.084-.226.074-.23c.21-.612.367-1.247.479-1.89.211-1.2.21-2.436.081-3.588-.106-.907-.261-1.778-.554-2.546l-.121-.388-.015-.048-.017-.046-.034-.093-.07-.184-.068-.182-.034-.09-.039-.088-.154-.348c-.027-.057-.049-.116-.079-.172l-.085-.168-.171-.336-.188-.33-.142-.248-.052-.082c-.101-.156-.203-.317-.311-.475l-.337-.46c-.116-.148-.233-.29-.34-.428l-.08-.104a13 13 0 0 1-.237-.284q-.05-.065-.102-.143-.025-.039-.053-.077l-.063-.07c-.133-.137-.294-.246-.427-.38a10 10 0 0 1-.278-.268l-.136-.138-.034-.034-.036-.033-.071-.066c-.191-.175-.377-.357-.586-.506q-.171-.13-.342-.256l-.351-.234-.174-.117q-.09-.055-.181-.108l-.361-.217-.051-.032-.051-.028-.102-.06-.2-.123-.199-.125q-.102-.059-.208-.11a4 4 0 0 0-.295-.126l-.152-.06a3 3 0 0 1-.152-.058q-.21-.09-.418-.186c-.14-.06-.283-.115-.422-.173l-.21-.085-.213-.072a11 11 0 0 0-.42-.13l-.567-.127a2 2 0 0 0-.143-.027l-.144-.024-.289-.05q-.58-.093-1.159-.183c-.215-.018-.443-.018-.675-.026l-.175-.007-.176.002-.355.002c-.118-.003-.236.005-.352.01l-.346.014q-.085.002-.169.011l-.166.013-.319.023c-.325.094-.662.135-1.009.198l-.263.042-.265.056c-.178.04-.36.075-.54.138-.076.026-.121.058-.197.086l-.204.07-.203.079-.414.148a23 23 0 0 1-.411.158c-.068.027-.138.05-.204.079l-.2.085-.197.084c-.065.03-.132.054-.194.086l-.367.183q-.091.043-.176.091l-.164.099q-.162.098-.307.195a1.5 1.5 0 0 0-.226.114q-.104.063-.199.136l-.093.072a1 1 0 0 0-.092.075 4 4 0 0 1-.183.155c-.277.208-.549.383-.814.59-.082.072-.141.157-.222.232a4 4 0 0 1-.191.166 2 2 0 0 0-.097.083l-.096.084-.198.171c-.067.06-.137.117-.201.186a6 6 0 0 0-.553.665q-.067.09-.137.179l-.071.09q-.035.044-.069.091a4 4 0 0 1-.302.362l-.05.08-.05.089-.106.185-.116.194-.061.099-.057.103a9 9 0 0 1-.241.405q-.063.098-.12.195a4 4 0 0 1-.119.185c-.046.11-.099.217-.147.327q-.069.165-.144.327l-.077.163-.039.08-.035.083q-.07.165-.145.33l-.073.165q-.035.083-.066.168l-.129.339c-.046.113-.079.23-.113.346q-.053.175-.099.352a1 1 0 0 0-.025.12l-.02.118a4 4 0 0 1-.089.465 1.5 1.5 0 0 1-.07.235c0 .175-.037.358-.062.554q-.022.147-.048.298-.013.075-.024.153l-.014.155a11 11 0 0 0-.018 1.271c.006.153.004.315.006.48q.012.248.026.492.003.06.01.12l.016.117a6 6 0 0 0 .037.223 3 3 0 0 0 .076.296q.017.045.036.085c.151.085.14.237.107.431-.027.193-.067.43.004.663.116.24.183.188.305.27q.035.08.058.159c.017.053.027.106.042.159q.039.158.067.32c.049.12.114.216.189.319.073.103.145.216.2.375" clip-rule="evenodd"/><path fill="#fff" d="M199.154 38v-2.2h2.72V25.32h-13.64V35.8h2.96V38h-8.08v-2.2h2.6V12.2h-2.6V10h8.08v2.2h-2.96v10.72h13.64V12.2h-2.72V10h7.68v2.2h-2.44v23.6h2.84V38z"/></svg>